<svg viewBox="0 0 527.03 116.48" xmlns="http://www.w3.org/2000/svg" xmlns:xlink="http://www.w3.org/1999/xlink"><clipPath id="a" transform="translate(-304.17 -242.88)"><path d="m398.73 259c-3.48-10.19-8.21-15.87-8.21-15.87-7 6.61-23.1 12.85-51.11 2.93s-35.23 5.93-35.23 11.67c0 3.06 1 10.36 10.65 10.36 6.13 0 9.64-5.64 9.64-8.91s-2.62-7.44-2.62-7.44c4.39 0 6.39 0 13.48 2.93l-5.82 13.33.66 1.52 6.29-14.32c.91.39 1.91.82 3 1.3l-7.51 17.11.66 1.52 8-18.13 3 1.35-9.16 20.87.66 1.52 9.6-21.88 3 1.37-10.91 24.53.66 1.52 11.23-25.58 3 1.35-12.42 28.3.66 1.51 12.87-29.32c1 .42 2 .85 3 1.28l-14.08 32.09.67 1.5 14.54-33.14c1 .39 2 .78 3.06 1.14l-15.8 36 .67 1.49 16.29-37.11c1 .34 2.07.66 3.14 1l-17.61 40.13.68 1.46 18.11-41.28q1.6.41 3.25.71l-19.5 44.43.68 1.47 20-45.68c1.12.18 2.25.31 3.39.4l-21.52 49.07q.35.67.73 1.35l22.11-50.39a35.54 35.54 0 0 0 3.58 0l-23.62 53.83q.35.52.72 1l.13.06 24.15-55a31.32 31.32 0 0 0 19.16-9.35zm-83.9 3.68a3.52 3.52 0 1 1 3.52-3.52 3.52 3.52 0 0 1 -3.53 3.55z"/></clipPath><clipPath id="b" transform="translate(-304.17 -242.88)"><path d="m391.41 264.55c5.5 42-12.67 64.6-21.2 76-6.78 8.82-7.26 12.73-4.85 16.52-8.87 3.82-16.73 1.76-19.73 1.11a20.73 20.73 0 0 1 -2.73-5.58c4.73-3.5 12.86-10.63 21.19-24.31 18.5-26.69 15.64-57.4 15.59-60.06a32.87 32.87 0 0 0 11.73-3.68z"/></clipPath><clipPath id="c" transform="translate(-304.17 -242.88)"><path d="m398.73 259c-3.48-10.19-8.21-15.87-8.21-15.87-7 6.61-23.1 12.85-51.11 2.93s-35.23 5.93-35.23 11.67c0 2.86.84 9.43 8.87 10.27h.16c.74.08 1.79.42 2.57 3.42 8.44 32.79 14.54 65 22.68 83.67a.36.36 0 0 0 .59.18c2.07-1.49 13.36-7.8 25-27-6.45-3.06-13.12-18.65-13.12-18.65-4.23-8.73-22.73-50.3-22.73-50.3-2.9-6.26-5.06-7-6.39-7.64 6.35 0 7.69 0 26.66 8.86 12.02 5.52 32.91 15.46 50.26-1.54zm-87.42.17a3.52 3.52 0 1 1 3.52 3.52 3.52 3.52 0 0 1 -3.52-3.5z"/></clipPath><filter id="d" color-interpolation-filters="sRGB" filterUnits="userSpaceOnUse" height="32766" width="36.26" x="327.3" y="-8491.64"><feFlood flood-color="#fff" result="bg"/><feBlend in="SourceGraphic" in2="bg"/></filter><mask id="e" height="32766" maskUnits="userSpaceOnUse" width="36.26" x="23.12" y="-8734.52"><g filter="url(#d)"/></mask><g transform="translate(-304.17 -242.88)"><path d="m562.49 288.34c0-7.82 6.58-7.49 6.58-7.49v-1.21h-23.43v1.21s6.58-.33 6.58 7.49v43.29c0 7.82-6.58 7.49-6.58 7.49v1.22h23.43v-1.22s-6.58.33-6.58-7.49z" fill="#fff"/><path d="m587.14 331.64v-35.8l-4.21-6v41.75c0 6.62-7.84 7.5-7.84 7.5v1.22h20v-1.22s-7.95-.6-7.95-7.45z" fill="#fff"/><path d="m614.19 279.64v1.22s8 .72 8 7.58v30.74l-28.39-39.52h-19v1.2s5.37.45 10.34 7.75c.33.49 37.54 51.76 37.54 51.76h3.67v-51.94c0-6.62 7.81-7.58 7.81-7.58v-1.22h-20z" fill="#fff"/><path d="m648.7 331.64v-35.8l-4.21-6v41.75c0 6.62-7.84 7.5-7.84 7.5v1.22h20v-1.22s-7.95-.6-7.95-7.45z" fill="#fff"/><path d="m675.74 279.64v1.22s8 .72 8 7.58v30.74l-28.36-39.52h-19v1.2s5.37.45 10.34 7.75c.33.49 37.54 51.76 37.54 51.76h3.67v-51.94c0-6.62 7.81-7.58 7.81-7.58v-1.22h-20z" fill="#fff"/><path d="m521.29 279.65v1.22c1.15 0 7.81.72 7.81 7.58v32.43c0 6.74-3.18 17.4-14.08 17.4-12.57 0-15.12-9.84-15.12-15.22v-.06-34.58c0-7.9 7.2-7.57 7.2-7.57v-1.22h-25.63v1.22s7.2-.33 7.2 7.57v34.58.79c0 4.81 2 18.56 23.18 18.56 21 0 21.42-16.62 21.42-23.42v-30.48c0-6.62 6.94-7.58 8-7.58v-1.22h-20z" fill="#fff"/><path d="m742 324.6h-1.55a15.61 15.61 0 0 1 -3.2 6.87c-2.49 2.77-6.16 4.6-11.33 4.6h-10.23v-26.07h4.8c2.19 0 7.81.14 9.74 1.65a7.77 7.77 0 0 1 3 5.12h.92v-18.19h-.92a7.65 7.65 0 0 1 -3 5.27c-1.76 1.32-7.54 1.45-9.74 1.45h-4.8v-21.78h6.31c3.19 0 9.89-.2 12.85 2 3.66 2.7 3.84 5.81 3.84 5.81h.9v-11.68h-40.18v1.21s6.58-.37 6.58 7.44v43.35c0 7.82-6.58 7.49-6.58 7.49v1.21h39.73z" fill="#fff"/><path d="m770.71 303.66c-4.6-1.71-15.9-3.65-15.9-12.43 0-6.59 6.23-10.35 11.7-10.35a15.25 15.25 0 0 1 12.16 5.57 21 21 0 0 1 3.89 7.39h1.09l-.07-14.28h-1.1a3.32 3.32 0 0 1 -2.68 1.17c-3.26 0-4.4-3.18-13.69-3.18s-18.51 8.22-18.51 18.45 9.42 15.1 17.27 17.71c8.59 2.85 15.23 6.46 15.23 13s-4.9 10.29-11.44 10.29-10.19-2.46-14-6.81a23.83 23.83 0 0 1 -4.91-10.42h-1.38v20.54h1.34a4.27 4.27 0 0 1 3.45-2.36c3.82-.28 7.76 3.17 15.59 3.17 8.26 0 18.47-6.06 18.47-18.58s-11.35-16.95-16.51-18.88z" fill="#fff"/><path d="m814.68 303.66c-4.6-1.71-15.9-3.65-15.9-12.43 0-6.59 6.22-10.35 11.7-10.35a15.25 15.25 0 0 1 12.16 5.57 21.09 21.09 0 0 1 3.89 7.39h1.09l-.08-14.28h-1.09a3.32 3.32 0 0 1 -2.68 1.17c-3.26 0-4.4-3.18-13.69-3.18s-18.48 8.21-18.48 18.42 9.41 15.1 17.26 17.71c8.59 2.85 15.23 6.46 15.23 13s-4.92 10.32-11.46 10.32-10.19-2.46-14-6.81a23.82 23.82 0 0 1 -4.91-10.42h-1.38v20.54h1.34a4.27 4.27 0 0 1 3.45-2.36c3.82-.28 7.76 3.17 15.59 3.17 8.26 0 18.47-6.06 18.47-18.58s-11.35-16.95-16.51-18.88z" fill="#fff"/><path d="m454.62 305.94v1.2s7.09-.32 7.09 7.45v16.16a8.12 8.12 0 0 1 0 .88v1.9a30.45 30.45 0 0 1 -15 3.84c-5 0-20.87-1.12-20.87-33s18.08-33.61 21.09-33.93c1.8-.19 9.68-.37 15.79 4.87s7.18 13.5 7.18 13.5h1.84v-19.73h-1a4.84 4.84 0 0 1 -3.92 1.52c-3.55 0-9.28-4.6-19.69-4.27-21.13.69-36 16.51-36 39.61 0 22.49 17.65 35.93 35.08 35.93a59.69 59.69 0 0 0 7.22-.43h.11c1.08-.19 2.25-.26 3.5-.55h.25.05c1.54-.3 3-.64 4.28-1 3.29-.58 7.83-.92 11.41.83v-10.4-1.32-14.41c0-7.77 7.09-7.45 7.09-7.45v-1.2z" fill="#fff"/><path d="m390.51 243.15c-7 6.61-23.1 12.85-51.11 2.93s-35.23 5.93-35.23 11.67c0 3.06 1 10.36 10.65 10.36 6.13 0 9.64-5.64 9.64-8.91s-2.62-7.44-2.62-7.44c6.35 0 7.69 0 26.66 8.86 12 5.45 32.87 15.4 50.22-1.59-3.48-10.2-8.21-15.88-8.21-15.88zm-75.69 19.56a3.52 3.52 0 1 1 3.52-3.52 3.52 3.52 0 0 1 -3.52 3.52z" fill="#fcc978"/><path d="m391.41 264.55c5.5 42-12.67 64.6-21.2 76-6.78 8.82-7.26 12.73-4.85 16.52-8.87 3.82-16.73 1.76-19.73 1.11a20.73 20.73 0 0 1 -2.73-5.58c4.73-3.5 12.86-10.63 21.19-24.31 18.5-26.69 15.64-57.4 15.59-60.06a32.87 32.87 0 0 0 11.73-3.68z" fill="#fcc978"/><path d="m378.44 267.86-23.87 54.4q.35.52.72 1l.13.06 24.41-55.63q-.69.12-1.39.17z" fill="#fcc978"/><path d="m351.77 317.5q.35.67.73 1.35l22.35-50.94-1.3-.07z" fill="#fcc978"/><path d="m349.2 312.21.68 1.47 20.28-46.21-1.24-.21z" fill="#fcc978"/><path d="m346.65 306.89.68 1.46 18.34-41.79-1.19-.31z" fill="#fcc978"/><path d="m344.16 301.42.67 1.49 16.51-37.62-1.15-.39z" fill="#fcc978"/><path d="m341.69 295.89.67 1.5 14.77-33.65-1.13-.44z" fill="#fcc978"/><path d="m339.24 290.34.66 1.51 13.1-29.85-1.11-.49z" fill="#fcc978"/><path d="m347.81 259.67-11 25.09.66 1.52 11.45-26.09-.17-.08z" fill="#fcc978"/><path d="m334.37 279.17.66 1.52 9.83-22.39-1.1-.51z" fill="#fcc978"/><path d="m331.94 273.56.66 1.52 8.18-18.65-1.11-.5z" fill="#fcc978"/><path d="m329.51 268 .66 1.52 6.51-14.84-1.12-.47z" fill="#fcc978"/><path d="m321.85 251.75c1.32.66 3.48 1.38 6.39 7.64 0 0 18.5 41.57 22.73 50.3 0 0 6.67 15.59 13.12 18.65-11.67 19.16-23 25.47-25 27a.36.36 0 0 1 -.59-.18c-8.13-18.66-14.24-50.88-22.68-83.67-.84-3.25-2-3.37-2.75-3.43-.07-.06 15.42-.75 8.78-16.31z" fill="#fcc978"/></g><g clip-path="url(#a)"><path d="m379.36 260.34a26.9 26.9 0 0 1 2.81 1.12c.92.41 1.83.81 2.77 1.13a9 9 0 0 0 2.87.53 10.12 10.12 0 0 0 2.89-.51c.95-.29 1.88-.66 2.81-1s1.73-.69 2.63-1c.84-.85 1.32-1.4 1.32-1.4v-.1l-.93.27c-.94.31-1.87.68-2.81 1s-1.88.73-2.85 1a10.62 10.62 0 0 1 -3 .51 9.39 9.39 0 0 1 -3-.57c-1-.33-1.88-.75-2.8-1.16l-1.15-.51.49-.23.83.36c.92.41 1.83.81 2.77 1.13a9 9 0 0 0 2.87.53 10.1 10.1 0 0 0 2.89-.51c.95-.29 1.88-.66 2.81-1s1.86-.75 2.83-1.07l.92-.27-.36-1-.4.12c-.94.31-1.87.68-2.81 1s-1.88.73-2.85 1a10.61 10.61 0 0 1 -3 .51 9.43 9.43 0 0 1 -3-.57c-.77-.26-1.51-.58-2.24-.91l.44-.26c.64.28 1.28.54 1.93.76a9 9 0 0 0 2.87.53 10.11 10.11 0 0 0 2.89-.51c.95-.29 1.88-.66 2.81-1s1.86-.75 2.83-1.07l.39-.12-.38-1c-.89.3-1.77.64-2.66 1s-1.88.73-2.85 1a10.6 10.6 0 0 1 -3 .51 9.44 9.44 0 0 1 -3-.57l-.71-.26.41-.3.44.16a9 9 0 0 0 2.87.53 10.16 10.16 0 0 0 2.89-.51c.95-.29 1.88-.66 2.81-1s1.75-.7 2.66-1l-.39-1c-.7.25-1.39.52-2.09.79-.93.37-1.88.73-2.85 1a10.62 10.62 0 0 1 -3 .51 8.54 8.54 0 0 1 -2.29-.35l.38-.35a7.86 7.86 0 0 0 1.91.25 10.17 10.17 0 0 0 2.89-.51c.95-.29 1.88-.66 2.81-1 .69-.27 1.38-.54 2.08-.8l-.41-1-1.49.57c-.93.36-1.88.73-2.85 1a10.61 10.61 0 0 1 -3 .51 7.6 7.6 0 0 1 -.93-.07l.36-.41h.57a10.17 10.17 0 0 0 2.89-.51c.95-.29 1.88-.66 2.81-1l1.47-.58-.43-.94-.87.34c-.93.36-1.88.73-2.85 1a11.24 11.24 0 0 1 -2.69.5l.33-.47a11.44 11.44 0 0 0 2.23-.47c.95-.29 1.88-.66 2.81-1l.84-.33-.45-.93-.21.08c-.93.37-1.88.73-2.85 1a13.72 13.72 0 0 1 -1.58.38l.27-.52c.39-.08.78-.19 1.17-.31.95-.29 1.88-.66 2.81-1l.18-.07-.47-.92c-.78.3-1.57.59-2.37.84l-.7.19.22-.53.35-.1c.77-.24 1.53-.52 2.28-.82l-.51-.92c-.54.2-1.09.4-1.64.56.06-.19.11-.37.16-.54.43-.14.86-.29 1.29-.45q-.29-.5-.55-.93l-.45.15v-.2-.16s0-.09 0-.13l.16-.06c-.31-.49-.59-.89-.81-1.2-4.14 26.37-42.54 11.91-54.27 7.2-22.76-8.33-26.68 3.56-26.68 3.56a9.46 9.46 0 0 1 12.17-3.94c13.44 0 31.72 18.4 57.15 18.4 4.73 0 9.67-3.13 13.25-6l-.39.22-1 .34a10.65 10.65 0 0 1 -3 .51 9.38 9.38 0 0 1 -3-.57c-1-.33-1.88-.75-2.8-1.16a27.09 27.09 0 0 0 -2.77-1.12 7.48 7.48 0 0 0 -2.89-.41 12.28 12.28 0 0 0 -2.89.62c-.95.31-1.88.68-2.81 1s-1.88.73-2.84 1a10.56 10.56 0 0 1 -3 .51 9.35 9.35 0 0 1 -3-.57c-1-.33-1.88-.75-2.79-1.16a26.79 26.79 0 0 0 -2.77-1.13 7.5 7.5 0 0 0 -2.92-.41 8.8 8.8 0 0 0 -1.57.23l-.31-.14a9.55 9.55 0 0 1 1.87-.32 7.78 7.78 0 0 1 3 .4 27.23 27.23 0 0 1 2.81 1.12c.92.41 1.83.81 2.77 1.13a9.11 9.11 0 0 0 2.9.54 10.24 10.24 0 0 0 2.91-.51c1-.29 1.88-.66 2.81-1s1.86-.75 2.82-1.07a12.51 12.51 0 0 1 3-.66 7.87 7.87 0 0 1 3 .41 27.33 27.33 0 0 1 2.81 1.12c.92.41 1.83.81 2.77 1.13a9 9 0 0 0 2.87.53 10.14 10.14 0 0 0 2.89-.51c.84-.26 1.66-.57 2.48-.9.8-.69 1.51-1.34 2.11-1.92l-1.61.62c-.93.36-1.88.73-2.85 1a10.6 10.6 0 0 1 -3 .51 9.39 9.39 0 0 1 -3-.57c-1-.33-1.88-.75-2.8-1.16a26.87 26.87 0 0 0 -2.77-1.12l-.61-.18.66-.22zm-.32 8-.81.05a6.58 6.58 0 0 0 -1.87-.1 9.08 9.08 0 0 0 -1.09.17h-1.23a11.28 11.28 0 0 1 2.29-.49 7.86 7.86 0 0 1 3 .35h.07zm2.35-.33a21.77 21.77 0 0 0 -2.15-.85 7.48 7.48 0 0 0 -2.89-.41 12.23 12.23 0 0 0 -2.89.62c-.74.24-1.47.52-2.2.8h-.34l-.35-.05c.91-.36 1.83-.73 2.77-1a12.63 12.63 0 0 1 3-.66 7.87 7.87 0 0 1 3 .41 25.3 25.3 0 0 1 2.62 1zm2.13-.68-1.52-.63a27.1 27.1 0 0 0 -2.77-1.12 7.46 7.46 0 0 0 -2.89-.41 12.21 12.21 0 0 0 -2.89.62c-.95.31-1.88.68-2.81 1s-1.61.62-2.43.89l-.64-.13h.14c1-.29 1.88-.66 2.81-1s1.86-.75 2.82-1.07a12.56 12.56 0 0 1 3-.66 7.89 7.89 0 0 1 3 .41 27.36 27.36 0 0 1 2.81 1.12c.65.29 1.3.58 2 .83zm-27.2-3.82a27 27 0 0 1 2.81 1.12c.92.41 1.83.81 2.77 1.13a9.08 9.08 0 0 0 2.9.54 10.23 10.23 0 0 0 2.91-.51c1-.29 1.88-.66 2.81-1s1.86-.75 2.82-1.07a12.55 12.55 0 0 1 3-.66 7.85 7.85 0 0 1 3 .41 27.41 27.41 0 0 1 2.81 1.12c.92.41 1.83.81 2.77 1.13a10.61 10.61 0 0 0 1.79.45l-.82.28c-.37-.09-.74-.2-1.1-.33-1-.33-1.88-.75-2.8-1.16a26.87 26.87 0 0 0 -2.77-1.12 7.48 7.48 0 0 0 -2.89-.41 12.2 12.2 0 0 0 -2.89.62c-.95.31-1.88.68-2.81 1s-1.88.73-2.84 1a10.57 10.57 0 0 1 -3 .51 7.62 7.62 0 0 1 -1-.08 10.76 10.76 0 0 1 -2-.49c-.52-.18-1-.38-1.53-.6l-1.26-.49a27 27 0 0 0 -2.77-1.13 11 11 0 0 0 -1.35-.33l-.78-.32a9.49 9.49 0 0 1 2.22.43zm5.58-2.51a9.1 9.1 0 0 0 2.9.54 8.14 8.14 0 0 0 1.36-.13l1.13.06a9.65 9.65 0 0 1 -2.48.36 9.35 9.35 0 0 1 -3-.57c-.37-.13-.74-.27-1.1-.42zm-20.11-4.1a10.32 10.32 0 0 1 -1.68-.18l-.7-.31a10.8 10.8 0 0 0 2.36.33 9.07 9.07 0 0 0 2.15-.3l.22.08h.09a9.55 9.55 0 0 1 -2.42.35zm1.84 1.41-.24-.11a13.42 13.42 0 0 0 1.36-.35c.48-.15 1-.33 1.61-.56h.13.14c-.73.28-1.3.47-1.83.63s-.8.35-1.17.43zm2.14 1h-.06l-.22-.1h.06c.67-.23 1.33-.49 2-.76l1-.41h.1l.2.06-1.12.43-.15.06c-.58.23-1.2.47-1.82.68zm1.95.91-.23-.11h.07l.24-.1c.84-.33 1.71-.68 2.58-1l.72-.22.36.1h-.05c-.33.09-.67.19-1 .31-.89.29-1.7.6-2.55.94zm22.93 1.78c-.94.37-1.88.73-2.84 1a10.54 10.54 0 0 1 -3 .51 9.39 9.39 0 0 1 -3-.57c-1-.33-1.88-.75-2.79-1.16a27 27 0 0 0 -2.77-1.13 7.54 7.54 0 0 0 -2.92-.41 12.32 12.32 0 0 0 -2.91.62l-.89.31-.25-.12 1.08-.38a12.46 12.46 0 0 1 3-.65 7.75 7.75 0 0 1 3 .4 27.14 27.14 0 0 1 2.81 1.12c.92.41 1.83.81 2.77 1.13a9.06 9.06 0 0 0 2.9.54 10.23 10.23 0 0 0 2.91-.51c1-.29 1.88-.66 2.81-1l.15-.06h.93z" fill="#31251c" transform="translate(-304.17 -242.88)"/></g><g clip-path="url(#b)" fill="#31251c"><path d="m391.64 265c-.27.14-.4.19-.75.35.15 5.35-.74 5.41-5.1 6.78-5.5 1.86-5.14.3-6.55 13.59v-18.63l12.39-3.25v1.16z" transform="translate(-304.17 -242.88)"/><path d="m344.75 355.1c1-.29 1.89-.66 2.82-1s1.86-.75 2.82-1.07a12.47 12.47 0 0 1 3-.65 6.16 6.16 0 0 1 1 0c.23-.39.49-.82.81-1.29a6.52 6.52 0 0 0 -1.76-.11 12.42 12.42 0 0 0 -2.91.63c-1 .31-1.88.68-2.82 1s-1.87.73-2.84 1l-.29.09.24-.2.08-.06c.93-.29 1.84-.65 2.75-1s1.86-.75 2.82-1.07a12.53 12.53 0 0 1 3-.65 6.84 6.84 0 0 1 1.92.12c.25-.36.53-.75.85-1.16a7.38 7.38 0 0 0 -2.75-.36 12.23 12.23 0 0 0 -2.91.63c-.92.3-1.82.65-2.72 1l.43-.37c.73-.29 1.47-.58 2.23-.83a12.52 12.52 0 0 1 3-.65 7.71 7.71 0 0 1 2.92.38c.26-.33.54-.69.85-1.07-.28-.11-.55-.21-.84-.3a7.53 7.53 0 0 0 -2.92-.41 11.33 11.33 0 0 0 -2.39.47l.37-.32a10.78 10.78 0 0 1 2-.37 7.77 7.77 0 0 1 3 .4c.31.1.62.21.93.33l.84-1c-.61-.26-1.22-.51-1.84-.72a7.57 7.57 0 0 0 -2.9-.41l.27-.24a8.08 8.08 0 0 1 2.7.42 20.8 20.8 0 0 1 1.95.74l.84-1h-.09a27.22 27.22 0 0 0 -2.77-1.13 9.55 9.55 0 0 0 -1.17-.3l.22-.19a10.12 10.12 0 0 1 1 .27 27.49 27.49 0 0 1 2.81 1.12l.16.07.86-1-1.13-.5c-.83-.38-1.67-.75-2.53-1l.21-.18c.83.29 1.63.64 2.42 1l1.21.53.89-1c-.75-.29-1.48-.62-2.21-.94l-1.25-.55.07-.2 1.15.5c.76.34 1.53.68 2.31 1l.94-1-.56-.18c-1-.33-1.88-.75-2.79-1.16l.21-.19c.89.4 1.78.79 2.7 1.1l.69.21 1-1.1a10.88 10.88 0 0 1 -1.83-.47c-.55-.19-1.09-.41-1.62-.64l.22-.2c.49.21 1 .41 1.49.58a10.59 10.59 0 0 0 2 .47l1.22-1.27h-.3a9.32 9.32 0 0 1 -3-.57l-.4-.15.23-.21.27.09a9 9 0 0 0 2.9.54h.62l1.55-1.65a9.2 9.2 0 0 1 -2.13.27 8.32 8.32 0 0 1 -2.1-.3l.24-.23a8 8 0 0 0 1.86.23 9.58 9.58 0 0 0 2.53-.4q.83-.88 1.72-1.85c-.41.15-.83.29-1.25.42a10.52 10.52 0 0 1 -3 .51 7 7 0 0 1 -.7 0l.27-.27h.43a10.19 10.19 0 0 0 2.91-.51c.61-.19 1.21-.41 1.81-.64.56-.62 1.12-1.26 1.7-1.93l-.58.22c-.93.37-1.87.73-2.84 1a12.36 12.36 0 0 1 -2.09.45l.34-.35a13.08 13.08 0 0 0 1.66-.4c1-.29 1.88-.66 2.81-1l1.16-.46q.74-.87 1.49-1.8c-.85.29-1.69.62-2.53.95s-1.87.73-2.84 1l-.21.06.41-.46c.85-.28 1.68-.6 2.52-.93s1.87-.75 2.82-1.07l.23-.07q.62-.78 1.24-1.6c-.46.11-.91.24-1.36.38-.95.31-1.88.68-2.81 1l-1 .39.44-.52.46-.18c.93-.37 1.87-.75 2.82-1.07a15.3 15.3 0 0 1 1.81-.49q.52-.69 1-1.4a12.61 12.61 0 0 0 -2.73.61c-.62.2-1.24.43-1.86.67l.42-.53c.44-.17.88-.33 1.33-.48a12.52 12.52 0 0 1 3-.66h.14l.86-1.24a6.2 6.2 0 0 0 -1 0 12.29 12.29 0 0 0 -2.89.62h-.1l.37-.49a11.8 11.8 0 0 1 2.6-.54 6.52 6.52 0 0 1 1.25 0l.74-1.12a6.7 6.7 0 0 0 -2-.16 9.78 9.78 0 0 0 -1.48.23l.31-.44a9.44 9.44 0 0 1 1.14-.16 7.16 7.16 0 0 1 2.21.18l.66-1a7.44 7.44 0 0 0 -2.85-.4h-.2l.27-.39a7.92 7.92 0 0 1 2.94.41h.05l.6-1-.77-.28a8.44 8.44 0 0 0 -2-.41l.23-.36a9 9 0 0 1 1.87.4c.29.09.58.2.86.3l.56-1c-.51-.21-1-.42-1.54-.59a10.05 10.05 0 0 0 -1-.27l.22-.34c.32.07.63.15.93.25.55.17 1.09.39 1.62.61l.53-1a22.83 22.83 0 0 0 -2.27-.9h-.16l.21-.34h.07a23.14 23.14 0 0 1 2.35.92l.51-1-.21-.09c-.7-.31-1.41-.63-2.12-.9l.2-.35c.71.26 1.4.57 2.09.87l.23.1.49-1-.92-.18-1.36-.6.2-.35 1.33.58.9.4.47-1c-.52-.22-1-.45-1.54-.67l-.64-.28.19-.36.61.27 1.55.67.46-1c-.72-.28-1.42-.59-2.11-.9l.19-.36c.7.31 1.39.61 2.09.88l.44-1c-.7-.24-1.38-.53-2-.83l.19-.37c.66.29 1.33.57 2 .79l.43-1-.59-.18c-.47-.16-.94-.35-1.39-.54l.18-.38c.44.19.89.36 1.35.51l.61.19.42-1.07q-.59-.14-1.17-.34l-.75-.28.18-.38.71.25a11.74 11.74 0 0 0 1.18.33l.4-1.1a11.18 11.18 0 0 1 -1.72-.45h-.11l.17-.39h.08a10.63 10.63 0 0 0 1.74.43l.39-1.13a9.77 9.77 0 0 1 -1.76-.36l.17-.4a9.06 9.06 0 0 0 1.73.33q.19-.57.37-1.16a8.42 8.42 0 0 1 -1.66-.24l.17-.41a7.79 7.79 0 0 0 1.63.21q.18-.59.35-1.18h-.24a7.84 7.84 0 0 1 -1.31-.12l.16-.42a7.22 7.22 0 0 0 1.15.09h.38q.17-.59.33-1.2c-.23 0-.46 0-.7 0a7.33 7.33 0 0 1 -.74 0l.15-.43h.58a7.24 7.24 0 0 0 .82-.05c.1-.4.2-.8.3-1.21a8.07 8.07 0 0 1 -1.12.08h-.17l.15-.44a8 8 0 0 0 1.24-.11q.14-.6.28-1.21a8.74 8.74 0 0 1 -1.14.14l.15-.46a9.15 9.15 0 0 0 1.1-.16c.09-.4.17-.8.25-1.21a9.67 9.67 0 0 1 -1 .16l.14-.47c.31 0 .62-.11.93-.18q.12-.6.22-1.21l-.8.16.13-.48.75-.17c.07-.4.13-.8.2-1.2l-.63.15.12-.5.58-.15c.06-.4.12-.79.17-1.2l-.45.12.12-.5.39-.11q.08-.59.15-1.18l-.27.08.11-.51h.13.09a96.54 96.54 0 0 0 .46-14.72c-1.64 21-7.09 42.46-31.52 65.18 3.57-4.57 2.59-7 5.2-12 0 0-15.05 21.59-22.64 25.34l1 2.16c.19-.11.6-.44.71-.23s.28.53.61 1.08z" transform="translate(-304.17 -242.88)"/><path d="m353.36 352.57a12.28 12.28 0 0 0 -2.91.63c-1 .31-1.88.68-2.82 1s-1.87.73-2.84 1h-.1c.23.37.49.78.78 1.19.7-.24 1.39-.51 2.08-.79.93-.37 1.86-.75 2.82-1.06a12.48 12.48 0 0 1 3-.65h.13c.21-.45.44-.9.71-1.4a6 6 0 0 0 -.85.08z" transform="translate(-304.17 -242.88)"/><path d="m350.39 356.25a14.15 14.15 0 0 1 2.27-.57c.27-.53.49-1 .71-1.48a12.32 12.32 0 0 0 -2.91.62c-1 .31-1.88.68-2.82 1-.68.26-1.36.52-2 .76l.11.14a7.82 7.82 0 0 0 2.31.38c.73-.27 1.52-.58 2.33-.85z" transform="translate(-304.17 -242.88)"/><path d="m350.46 356.44c-.65.21-1.3.45-1.94.7a10.59 10.59 0 0 0 3.4-.65 1.14 1.14 0 0 0 .62-.58 14.31 14.31 0 0 0 -2.08.53z" transform="translate(-304.17 -242.88)"/></g><path d="m344.29 349.78a25.36 25.36 0 0 1 -3.07 2.32c-1 .64-2.06 0-3.11-1.91-1.34-2.47-4.35-11.64-5.65-16.33 1 2 4.34 10.82 6.59 15.54.71 1.23 1.27 2.17 3.05 1.37z" fill="#31251c" transform="translate(-304.17 -242.88)"/><path d="m318.42 279.15c.2-4.25-2-6.93.91-8.47 1.85-1 2.06-1.85 2.06-1.85a14.29 14.29 0 0 0 -1.58-4.21c-.14-.19-.24 0-.24 0a7.41 7.41 0 0 1 -5.53 3.33c2.96.92 3.23 9.32 4.38 11.2z" fill="#31251c" transform="translate(-304.17 -242.88)"/><path d="m312.22 256.83a3.5 3.5 0 0 1 2.6-1.16h.4a6.06 6.06 0 0 1 .64 0 6.23 6.23 0 0 1 3.24.9 5 5 0 0 0 -9.27 2.81 5.24 5.24 0 0 0 0 .71 6.26 6.26 0 0 1 2.39-3.26z" fill="#31251c" transform="translate(-304.17 -242.88)"/><path d="m319.7 257.31a5.22 5.22 0 0 1 -2.93 6.72 5.83 5.83 0 0 0 2.93-1 .62.62 0 0 1 .88.43c8.77 21.36 23.58 67.37 32.4 80l2.22-2.55c-11.2-14.15-19.84-45.56-35.5-83.6z" fill="#31251c" transform="translate(-304.17 -242.88)"/><g clip-path="url(#c)"><path d="m356.81 322.49 1.93-1.16-1.12-1.85-.68.41-1.53 3.48-.13-.06q-.37-.52-.72-1l.83-1.89c-.6-.94-.88-1.39-1.44-2.37l2.57-1.55-1.42-2.38-.69.42-1.91 4.36q-.38-.69-.73-1.35l.84-1.91c-.4-.75-.79-1.49-1.15-2.21-.15-.3 0 0-.25-.49l2.82-1.7-1.44-2.5-.7.42-2 4.57-.68-1.47.8-1.83v-.1c-.47-1-.71-1.52-1.3-2.8l2.83-1.71-1.41-2.47-.71.43-2 4.62-.68-1.46.84-1.92v-.09c-.5-1.08-.71-1.65-1.26-2.85l2.8-1.69-1.43-2.44-.72.44-2 4.57-.67-1.49.7-1.97c-.51-1.11-.77-1.77-1.3-2.94l2.74-1.66-1.44-2.39-.73.44-2 4.45-.67-1.5.82-1.87c-.51-1.13-.82-1.85-1.35-3l2.68-1.62-1.32-2.27-.74.45-1.88 4.28-.66-1.51.79-1.81c-.5-1.12-.83-1.92-1.34-3l2.62-1.58-1.3-2.18-.75.46-1.8 4.09-.66-1.52.76-1.73c-.5-1.11-.89-2-1.37-3.11l2.54-1.54-1.23-2-.77.46-1.64 3.79-.66-1.52.72-1.65-1.45-3.24 2.47-1.49-1.08-1.85-.78.47-1.61 3.68-.66-1.52.68-1.56-1.42-3.17 2.38-1.44-1.12-1.85-.79.48-1.52 3.46-.65-1.49.65-1.47-3.57-8c-3.56-8-9.07-7-11.11-6.48 2.81-.26 6.59.38 8.8 5.77 2.47 6 22.18 54.73 26.28 62 3.07 5.46 6.72 11.22 13.53 8.53-2.37-.06-4.92-2.56-7.28-5.86z" fill="#31251c" transform="translate(-304.17 -242.88)"/></g><path d="m332 317.51a.51.51 0 1 1 .65.31.51.51 0 0 1 -.65-.31zm10.82 22a1.25 1.25 0 0 1 1.66.66 1.14 1.14 0 0 1 -.86 1.42 1.23 1.23 0 0 1 -1.59-.55 1.14 1.14 0 0 1 .82-1.57zm-.56-1.23a2.22 2.22 0 0 0 -1.44 2.74 1.31 1.31 0 0 0 .69.86l.09.06a5.94 5.94 0 0 1 -1.18-.5 3.46 3.46 0 0 1 -1.54-1.46v-.06-.09a.18.18 0 0 0 -.11-.13.16.16 0 0 0 -.15.05l-.45.38-.16.13a.14.14 0 0 0 0 .16.73.73 0 0 0 .11.17 6.35 6.35 0 0 0 3.13 2.42 4.21 4.21 0 0 0 2.66-.11 2.34 2.34 0 0 0 1.65-3.11 2.53 2.53 0 0 0 -3.27-1.55zm.26-6.52 1.14 3.18a.17.17 0 0 1 0 .16.16.16 0 0 1 -.14.06h-.82a.25.25 0 0 1 -.27-.15l-.74-2.08a0 0 0 0 0 0 0h-.15l-1.31.33a1.78 1.78 0 0 1 .7 1.06 2.22 2.22 0 0 1 -1.46 2.72 2.72 2.72 0 0 1 -1.9 0 2.31 2.31 0 0 1 -1.33-1.38 2.69 2.69 0 0 1 0-2.35.19.19 0 0 1 .25-.14h.13l.85.31a.13.13 0 0 1 .09.08.15.15 0 0 1 -.06.16 1.28 1.28 0 0 0 -.16 1.36 1.24 1.24 0 0 0 1.71.71 1.12 1.12 0 0 0 .73-1.37 1.16 1.16 0 0 0 -.77-.77.17.17 0 0 1 -.14-.12l-.14-.44-.11-.34a.17.17 0 0 1 0-.14.18.18 0 0 1 .12-.08l3.64-1a.22.22 0 0 1 .17.19zm-3.27-6.31.71-.18a.22.22 0 0 1 .28.12l1.27 3.56a.18.18 0 0 1 -.08.25l-1 .35s-1.65-.46-3-.68a7 7 0 0 0 -3.16.15.17.17 0 0 1 -.25-.08l-.43-1.21a.17.17 0 0 1 0-.14.2.2 0 0 1 .14-.09 8.63 8.63 0 0 1 3.55.12 16.3 16.3 0 0 1 2.55.7l.16.06-.94-2.63a.22.22 0 0 1 0-.18.2.2 0 0 1 .14-.1zm-.77-4.22.09.1.59.7v.05s0 .13-.14.19l-6.32 2.26a.2.2 0 0 1 -.28-.12l-.31-.87a.19.19 0 0 1 .13-.25l6-2.12a.22.22 0 0 1 .27.02zm-4.25-4.23-.25-.7 2.18-.78.24.66a1 1 0 0 1 -.83 1.06 1 1 0 0 1 -1.34-.24zm2.18-2.39-3.16 1.13a.11.11 0 0 0 -.06.15l.52 1.46a1.81 1.81 0 0 0 3.29-1.35l-.45-1.26a.11.11 0 0 0 -.14-.1zm-2.18-4.57h.16.36a.17.17 0 0 1 .2.12l.94 2.63a.15.15 0 0 1 -.07.19l-.09.06-.41.25a.13.13 0 0 1 -.11 0 .13.13 0 0 1 -.07-.09l-.39-1.08-3.75 1.32a.11.11 0 0 1 -.16-.08l-.25-.71a.11.11 0 0 1 .08-.15l3.77-1.34-.14-.39-.2-.56a.09.09 0 0 1 0-.08.17.17 0 0 1 .13-.05zm-.16-3a1.72 1.72 0 0 1 -.13 1.37.13.13 0 0 1 -.17 0l-.61-.19a.16.16 0 0 1 -.11-.08.1.1 0 0 1 0-.11.62.62 0 0 0 .19-.7.65.65 0 0 0 -.79-.48.75.75 0 0 0 -.35.82v.27.09a1.5 1.5 0 0 1 -1 1.55 1.69 1.69 0 0 1 -2.18-1.08 1.47 1.47 0 0 1 .17-1.74.15.15 0 0 1 .2-.06l.59.28a.14.14 0 0 1 0 .12 1 1 0 0 0 -.18 1 .7.7 0 0 0 .95.46c.44-.16.48-.38.53-1.13a1.41 1.41 0 0 1 1-1.59 1.58 1.58 0 0 1 1.89 1.25zm-6.94-4.48 4.46-1.59a.14.14 0 0 1 .18.08l.82 2.29a.08.08 0 0 1 0 .08.14.14 0 0 1 -.11.05h-.08l-.49.06a.19.19 0 0 1 -.19-.13l-.48-1.34s0 0-.07 0l-1 .37.48 1.34a.11.11 0 0 1 -.08.14l-.5.18a.11.11 0 0 1 -.15-.08l-.47-1.32-1.35.48.54 1.51a.12.12 0 0 1 0 .15l-.44.26a.14.14 0 0 1 -.12 0 .1.1 0 0 1 -.06-.06l-1.02-2.26a.12.12 0 0 1 .13-.16z" fill="#31251c" transform="translate(-304.17 -242.88)"/><g fill="none" mask="url(#e)" stroke="#31251c" stroke-miterlimit="10"><path d="m348.12 329.69c8-3.89 10.5.62 14.54 1.17" stroke-width=".2" transform="translate(-304.17 -242.88)"/><path d="m348.71 331.06c6.86-3.33 10.06.5 13 1.24" stroke-width=".2" transform="translate(-304.17 -242.88)"/><path d="m349.46 332.44c5.87-3 9.8.87 11.45 1.1" stroke-width=".21" transform="translate(-304.17 -242.88)"/><path d="m350.23 333.71c5.15-2 8.46.84 9.76 1.1" stroke-width=".21" transform="translate(-304.17 -242.88)"/><path d="m351 335.12c1-.36 3.63-1.33 8.08.94" stroke-width=".21" transform="translate(-304.17 -242.88)"/><path d="m351.86 336.45c1-.2 2.88-.74 6.34.84" stroke-width=".21" transform="translate(-304.17 -242.88)"/><path d="m352.74 337.9a8.17 8.17 0 0 1 4.52.66" stroke-width=".22" transform="translate(-304.17 -242.88)"/><path d="m353.78 339.49a6.23 6.23 0 0 1 2.53.33" stroke-width=".22" transform="translate(-304.17 -242.88)"/><path d="m347.45 328.3s5.36-2.58 8.34-1.62" stroke-width=".19" transform="translate(-304.17 -242.88)"/><path d="m361 328.74a14.73 14.73 0 0 0 2.55.8" stroke-width=".22" transform="translate(-304.17 -242.88)"/><path d="m346.74 326.92c.94-.38 5.51-2.24 7.32-2.11" stroke-width=".19" transform="translate(-304.17 -242.88)"/><path d="m346.14 325.52c.81-.31 5.52-2.25 6.73-2.22" stroke-width=".18" transform="translate(-304.17 -242.88)"/><path d="m345.51 324.14c.84-.34 5.47-2.21 6.51-2.27" stroke-width=".18" transform="translate(-304.17 -242.88)"/><path d="m344.83 322.73c.85-.21 5.88-2.29 6.31-2.26" stroke-width=".18" transform="translate(-304.17 -242.88)"/><path d="m344.22 321.26c1-.13 5.26-1.93 6.11-2.18" stroke-width=".17" transform="translate(-304.17 -242.88)"/><path d="m343.62 319.75c1.21-.11 5.35-1.87 6.05-2.08" stroke-width=".17" transform="translate(-304.17 -242.88)"/><path d="m343 318.24c1.71-.11 5.47-1.77 6.17-2" stroke-width=".17" transform="translate(-304.17 -242.88)"/><path d="m342.29 316.6c1.7.22 5.7-1.56 6.06-1.68" stroke-width=".17" transform="translate(-304.17 -242.88)"/><path d="m341.71 315c2 .26 5.53-1.33 6-1.5" stroke-width=".17" transform="translate(-304.17 -242.88)"/><path d="m341.11 313.43c2.46.25 5.43-1 6-1.24" stroke-width=".17" transform="translate(-304.17 -242.88)"/><path d="m340.39 311.7c2.42.59 5.59-.75 6.09-.91" stroke-width=".17" transform="translate(-304.17 -242.88)"/><g stroke-width=".15"><path d="m339.72 309.9a9.45 9.45 0 0 0 6.15-.54" transform="translate(-304.17 -242.88)"/><path d="m338.92 308a8.18 8.18 0 0 0 6.31-.07" transform="translate(-304.17 -242.88)"/><path d="m338.3 306.19a9.23 9.23 0 0 0 6.33.31" transform="translate(-304.17 -242.88)"/><path d="m337.6 304.28c1.41.53 3.86 1.59 6.41.74" transform="translate(-304.17 -242.88)"/><path d="m336.86 302.35c1.1.43 3.9 1.79 6.49 1.22" transform="translate(-304.17 -242.88)"/><path d="m336.11 300.37c1.17.49 4.17 2 6.62 1.67" transform="translate(-304.17 -242.88)"/><path d="m335.36 298.42c1.46.62 4.48 2.22 6.72 2" transform="translate(-304.17 -242.88)"/><path d="m334.61 296.49c1.35.56 5.64 2.57 6.75 2.23" transform="translate(-304.17 -242.88)"/><path d="m333.87 294.57c1.22.46 5.7 2.58 6.74 2.48" transform="translate(-304.17 -242.88)"/></g><path d="m333.12 292.78c1.38.17 5.53 2.36 6.82 2.52" stroke-width=".14" transform="translate(-304.17 -242.88)"/><path d="m332.7 291c1.38.17 5.53 2.36 6.82 2.52" stroke-width=".14" transform="translate(-304.17 -242.88)"/><path d="m331.9 289.22c1.83 0 5.53 2.19 6.82 2.35" stroke-width=".14" transform="translate(-304.17 -242.88)"/><path d="m331.36 287.49c1.83 0 5.57 2.09 6.87 2.23" stroke-width=".14" transform="translate(-304.17 -242.88)"/><path d="m330.7 285.89c1.61-.41 5.06 1.46 6 1.71" stroke-width=".14" transform="translate(-304.17 -242.88)"/><path d="m332.72 278a9.08 9.08 0 0 0 -4.82.4" stroke-width=".11" transform="translate(-304.17 -242.88)"/><path d="m331.92 276.21a9.24 9.24 0 0 0 -4.6.69" stroke-width=".11" transform="translate(-304.17 -242.88)"/><path d="m328.35 279.81a7.31 7.31 0 0 1 5.08 0" stroke-width=".12" transform="translate(-304.17 -242.88)"/><path d="m334.28 281.7a7.52 7.52 0 0 0 -5.37-.36" stroke-width=".12" transform="translate(-304.17 -242.88)"/><path d="m329.38 282.85a7.86 7.86 0 0 1 5.62.76" stroke-width=".14" transform="translate(-304.17 -242.88)"/><path d="m330.15 284.36s2-.6 5.73 1.25" stroke-width=".14" transform="translate(-304.17 -242.88)"/></g><path d="m326.76 275.45a12.4 12.4 0 0 1 4.55-.94" fill="none" stroke="#31251c" stroke-miterlimit="10" stroke-width=".11" transform="translate(-304.17 -242.88)"/><path d="m326.17 274a16.28 16.28 0 0 1 4.51-1.12" fill="none" stroke="#31251c" stroke-miterlimit="10" stroke-width=".11" transform="translate(-304.17 -242.88)"/><path d="m325.66 272.61a19.32 19.32 0 0 1 4.33-1.26" fill="none" stroke="#31251c" stroke-miterlimit="10" stroke-width=".11" transform="translate(-304.17 -242.88)"/><path d="m325.09 271.21a23.84 23.84 0 0 1 4.3-1.36" fill="none" stroke="#31251c" stroke-miterlimit="10" stroke-width=".11" transform="translate(-304.17 -242.88)"/><path d="m324.53 269.81a37.32 37.32 0 0 1 4.21-1.45" fill="none" stroke="#31251c" stroke-miterlimit="10" stroke-width=".11" transform="translate(-304.17 -242.88)"/><path d="m324 268.42a34.45 34.45 0 0 1 4.23-1.53" fill="none" stroke="#31251c" stroke-miterlimit="10" stroke-width=".11" transform="translate(-304.17 -242.88)"/><path d="m323.44 267s2.87-1.14 4.23-1.57" fill="none" stroke="#31251c" stroke-miterlimit="10" stroke-width=".11" transform="translate(-304.17 -242.88)"/><path d="m322.9 265.58s2.92-1.15 4.08-1.56" fill="none" stroke="#31251c" stroke-miterlimit="10" stroke-width=".11" transform="translate(-304.17 -242.88)"/></svg>